<?xml version="1.0" encoding="iso-8859-1"?>
<!-- Generator: Adobe Illustrator 19.0.0, SVG Export Plug-In . SVG Version: 6.00 Build 0)  -->
<svg version="1.1" id="Layer_1" xmlns="http://www.w3.org/2000/svg" xmlns:xlink="http://www.w3.org/1999/xlink" x="0px" y="0px"
	 viewBox="0 0 512 512" style="enable-background:new 0 0 512 512;" xml:space="preserve">
<g>
	<g>
		<path d="M508.27,444.897L276.137,42.828c-4.156-7.2-11.839-11.636-20.153-11.636c-8.313,0-15.997,4.435-20.153,11.636L3.118,445.9
			c-4.158,7.2-4.158,16.071,0,23.271s11.84,11.636,20.153,11.636h465.425c0.011,0,0.022,0,0.033,0
			c12.852,0,23.271-10.419,23.271-23.271C512,452.876,510.63,448.536,508.27,444.897z M314.725,314.516l-46.543,77.571
			c-4.363,7.27-12.072,11.301-19.978,11.301c-4.076,0-8.202-1.07-11.951-3.32c-11.021-6.614-14.594-20.907-7.982-31.928
			l25.395-42.326h-36.469c-8.384,0-16.121-4.51-20.251-11.805c-4.13-7.296-4.018-16.251,0.296-23.439l46.542-77.571
			c6.612-11.021,20.908-14.594,31.927-7.982c11.021,6.614,14.594,20.907,7.982,31.928l-25.397,42.326h36.471
			c8.384,0,16.121,4.51,20.252,11.805C319.153,298.373,319.038,307.326,314.725,314.516z"/>
	</g>
</g>
<g>
</g>
<g>
</g>
<g>
</g>
<g>
</g>
<g>
</g>
<g>
</g>
<g>
</g>
<g>
</g>
<g>
</g>
<g>
</g>
<g>
</g>
<g>
</g>
<g>
</g>
<g>
</g>
<g>
</g>
</svg>
