<?xml version="1.0" encoding="iso-8859-1"?>
<!-- Generator: Adobe Illustrator 18.0.0, SVG Export Plug-In . SVG Version: 6.00 Build 0)  -->
<!DOCTYPE svg PUBLIC "-//W3C//DTD SVG 1.1//EN" "http://www.w3.org/Graphics/SVG/1.1/DTD/svg11.dtd">
<svg version="1.1" id="Capa_1" xmlns="http://www.w3.org/2000/svg" xmlns:xlink="http://www.w3.org/1999/xlink" x="0px" y="0px"
	 viewBox="0 0 329.562 329.562" style="enable-background:new 0 0 329.562 329.562;" xml:space="preserve">
<g>
	<path d="M326.174,272.923l-139.5-241.568c-4.516-7.821-12.861-12.638-21.893-12.638c-9.031,0-17.377,4.816-21.893,12.638
		L3.388,272.923c-4.518,7.821-4.518,17.46-0.002,25.282c4.516,7.822,12.862,12.641,21.895,12.641h279
		c9.032,0,17.379-4.818,21.895-12.641C330.691,290.383,330.691,280.744,326.174,272.923z M25.281,285.565l139.5-241.568
		l139.5,241.568H25.281z"/>
	<path d="M185.099,255.527l3.908,16.694c9.564,0,19.131,0,28.693,0c-5.209-5.561-10.419-11.127-15.628-16.694
		C196.415,255.527,190.759,255.527,185.099,255.527z"/>
	<path d="M87.701,272.221c9.563,0,19.129,0,28.695,0l3.904-16.694c-5.656,0-11.313,0-16.971,0
		C98.119,261.095,92.91,266.66,87.701,272.221z"/>
	<path d="M141.861,255.527l-3.908,16.694c9.832,0,19.665,0,29.497,0l-3.91-16.694C156.316,255.527,149.087,255.527,141.861,255.527z
		"/>
	<path d="M167.964,146.841c-7.987-4.763-25.515-0.393-35.251,2.636c-1.64,0.511-3.063,1.553-4.043,2.962l-13.462,19.338
		c-2.437,3.5-1.574,8.311,1.925,10.748c3.499,2.436,8.313,1.574,10.747-1.926l11.918-17.118c1.692-0.48,3.408-0.921,5.095-1.317
		l-7.306,30.411c-0.375,1.563-0.504,3.123-0.435,4.65l-4.871,20.933l-17.742,21.412c-2.721,3.283-2.264,8.15,1.019,10.871
		c1.441,1.193,3.187,1.775,4.922,1.775c2.22,0,4.423-0.952,5.95-2.795l18.903-22.814c0.764-0.922,1.304-2.009,1.574-3.176
		l4.765-20.471c0.195,0.464,0.438,0.917,0.731,1.35l14.71,21.683v18.503c0,4.264,3.456,7.721,7.721,7.721
		c4.264,0,7.721-3.457,7.721-7.721V223.62c0-1.546-0.464-3.056-1.332-4.335l-11.68-17.217c0.196-0.551,0.371-1.114,0.511-1.695
		l6.412-26.704c2.101,1.974,3.885,3.712,5.018,4.845c0.986,0.986,2.221,1.688,3.573,2.03l23.732,5.992
		c0.634,0.16,1.27,0.236,1.896,0.236c3.452,0,6.596-2.333,7.48-5.833c1.044-4.134-1.461-8.332-5.596-9.376l-21.692-5.477
		C186.679,161.978,175.513,151.342,167.964,146.841z"/>
	<path d="M180.648,150.126c10.031,0,18.166-8.134,18.166-18.164c0-10.035-8.135-18.166-18.166-18.166
		c-10.033,0-18.166,8.131-18.166,18.166C162.482,141.992,170.615,150.126,180.648,150.126z"/>
</g>
<g>
</g>
<g>
</g>
<g>
</g>
<g>
</g>
<g>
</g>
<g>
</g>
<g>
</g>
<g>
</g>
<g>
</g>
<g>
</g>
<g>
</g>
<g>
</g>
<g>
</g>
<g>
</g>
<g>
</g>
</svg>
