<?xml version="1.0" encoding="iso-8859-1"?>
<!-- Generator: Adobe Illustrator 19.0.0, SVG Export Plug-In . SVG Version: 6.00 Build 0)  -->
<svg version="1.1" id="Layer_1" xmlns="http://www.w3.org/2000/svg" xmlns:xlink="http://www.w3.org/1999/xlink" x="0px" y="0px"
	 viewBox="0 0 512 512" style="enable-background:new 0 0 512 512;" xml:space="preserve">
<g>
	<g>
		<path d="M336.386,255.966L474.406,69.642L381.552,0H135.415L37.594,74.462l136.501,181.706L79.453,383.887L42.21,432.821
			l81.123,0.584l22.16,78.041l37.247-48.94l72.717-100.447l77.854,101.011L370.574,512l22.158-78.033l81.13-0.586l-37.341-49.029
			L336.386,255.966z M351.143,20.53l-39.706,54.595h-112.77L154.991,20.53H351.143z M296.135,95.654l-40.936,54.583l-40.936-54.583
			H296.135z M66.262,78.442l67.601-51.46l51.758,64.697l56.689,75.586l-55.308,71.9L66.262,78.442z M255.189,328.088l-0.249-0.324
			l-88.61,122.408l-12.305,16.166l-15.149-53.348l-55.467-0.4l12.461-16.373l99.217-133.891l60.008-78.01l0.103,0.138
			l81.995-109.328h-0.372l39.064-53.712l69.876,52.408L315.312,249.929L255.189,328.088z M377.187,413.55l-15.151,53.356
			l-12.429-16.321l-81.453-105.681l55.396-72.015l96.711,123.995l12.388,16.265L377.187,413.55z"/>
	</g>
</g>
<g>
</g>
<g>
</g>
<g>
</g>
<g>
</g>
<g>
</g>
<g>
</g>
<g>
</g>
<g>
</g>
<g>
</g>
<g>
</g>
<g>
</g>
<g>
</g>
<g>
</g>
<g>
</g>
<g>
</g>
</svg>
