<?xml version="1.0" encoding="iso-8859-1"?>
<!-- Generator: Adobe Illustrator 19.0.0, SVG Export Plug-In . SVG Version: 6.00 Build 0)  -->
<svg version="1.1" id="Layer_1" xmlns="http://www.w3.org/2000/svg" xmlns:xlink="http://www.w3.org/1999/xlink" x="0px" y="0px"
	 viewBox="0 0 490.319 490.319" style="enable-background:new 0 0 490.319 490.319;" xml:space="preserve">
<g id="XMLID_927_">
	<g id="XMLID_794_">
		<circle style="fill:#5EBAE7;" cx="137.836" cy="130.764" r="15.332"/>
	</g>
	<g id="XMLID_822_">
		<circle style="fill:#5EBAE7;" cx="352.483" cy="130.764" r="15.332"/>
	</g>
	<g id="XMLID_856_">
		<circle style="fill:#5EBAE7;" cx="459.806" cy="314.747" r="15.332"/>
	</g>
	<g id="XMLID_933_">
		<circle style="fill:#5EBAE7;" cx="352.483" cy="468.066" r="15.332"/>
	</g>
	<g id="XMLID_857_">
		<circle style="fill:#5EBAE7;" cx="245.159" cy="314.747" r="15.332"/>
	</g>
	<g id="XMLID_858_">
		<circle style="fill:#5EBAE7;" cx="38.179" cy="314.747" r="15.332"/>
	</g>
	<g id="XMLID_859_">
		<circle style="fill:#89CC86;" cx="38.179" cy="192.092" r="15.332"/>
	</g>
	<g id="XMLID_928_">
		<circle style="fill:#89CC86;" cx="137.836" cy="23.441" r="15.332"/>
	</g>
	<g id="XMLID_929_">
		<circle style="fill:#89CC86;" cx="245.159" cy="192.092" r="15.332"/>
	</g>
	<g id="XMLID_930_">
		<circle style="fill:#89CC86;" cx="459.806" cy="192.092" r="15.332"/>
	</g>
	<g id="XMLID_931_">
		<circle style="fill:#89CC86;" cx="352.483" cy="368.408" r="15.332"/>
	</g>
	<g id="XMLID_932_">
		<circle style="fill:#89CC86;" cx="137.836" cy="368.408" r="15.332"/>
	</g>
	<path style="fill:#1D1D1B;" d="M461.982,290.93v-73.95c11.181-2.599,19.54-12.637,19.54-24.597
		c0-13.927-11.331-25.258-25.258-25.258c-6.518,0-12.467,2.482-16.952,6.55l-64.043-36.976c0.453-1.891,0.7-3.861,0.7-5.889
		c0-13.927-11.331-25.258-25.258-25.258s-25.258,11.331-25.258,25.258c0,1.673,0.167,3.308,0.479,4.891L261.332,173
		c-4.385-3.665-10.025-5.875-16.173-5.875c-6.148,0-11.788,2.21-16.173,5.875l-64.601-37.298c0.312-1.583,0.48-3.218,0.48-4.892
		c0-11.255-7.402-20.811-17.592-24.065V49.324c10.19-3.254,17.592-12.81,17.592-24.065C164.865,11.331,153.534,0,139.607,0
		s-25.258,11.331-25.258,25.259c0,11.255,7.402,20.811,17.592,24.065v57.422c-10.19,3.254-17.592,12.81-17.592,24.065
		c0,2.028,0.247,3.999,0.7,5.889l-64.043,36.975c-4.485-4.068-10.434-6.55-16.951-6.55c-13.927,0-25.258,11.331-25.258,25.258
		c0,11.96,8.359,21.998,19.54,24.597v73.95c-11.181,2.599-19.54,12.637-19.54,24.597c0,13.927,11.331,25.258,25.258,25.258
		c8.042,0,15.213-3.783,19.842-9.658l60.555,34.962c-0.064,0.73-0.103,1.468-0.103,2.214c0,13.927,11.331,25.258,25.258,25.258
		s25.258-11.331,25.258-25.258c0-0.38-0.012-0.756-0.029-1.132l61.107-35.28c4.636,5.437,11.528,8.894,19.216,8.894
		s14.58-3.457,19.217-8.894l61.106,35.28c-0.017,0.376-0.029,0.753-0.029,1.133c0,11.255,7.402,20.811,17.592,24.065v48.626
		c-10.19,3.254-17.592,12.81-17.592,24.065c0,13.928,11.331,25.259,25.258,25.259s25.258-11.331,25.258-25.259
		c0-11.255-7.402-20.811-17.592-24.065v-48.626c10.19-3.254,17.592-12.81,17.592-24.065c0-0.747-0.039-1.484-0.103-2.214
		l60.555-34.962c4.629,5.875,11.8,9.658,19.842,9.658c13.927,0,25.258-11.331,25.258-25.258
		C481.522,303.567,473.163,293.529,461.982,290.93z M456.264,182.457c5.473,0,9.926,4.453,9.926,9.926
		c0,5.473-4.453,9.926-9.926,9.926c-5.474,0-9.926-4.453-9.926-9.926S450.791,182.457,456.264,182.457z M350.711,120.885
		c5.474,0,9.926,4.453,9.926,9.926c0,5.474-4.453,9.927-9.926,9.927s-9.926-4.453-9.926-9.927
		C340.786,125.338,345.238,120.885,350.711,120.885z M245.159,182.457c5.474,0,9.926,4.453,9.926,9.926
		c0,5.473-4.453,9.926-9.926,9.926c-5.473,0-9.926-4.453-9.926-9.926S239.686,182.457,245.159,182.457z M139.607,15.332
		c5.473,0,9.926,4.453,9.926,9.927c0,5.473-4.453,9.926-9.926,9.926c-5.474,0-9.926-4.453-9.926-9.926
		C129.681,19.785,134.133,15.332,139.607,15.332z M139.607,120.885c5.473,0,9.926,4.453,9.926,9.926
		c0,5.474-4.453,9.927-9.926,9.927c-5.474,0-9.926-4.453-9.926-9.927C129.681,125.338,134.133,120.885,139.607,120.885z
		 M24.128,192.383c0-5.473,4.453-9.926,9.926-9.926s9.926,4.453,9.926,9.926c0,5.473-4.453,9.926-9.926,9.926
		C28.581,202.309,24.128,197.855,24.128,192.383z M34.055,325.453c-5.474,0-9.926-4.453-9.926-9.926s4.453-9.926,9.926-9.926
		s9.926,4.453,9.926,9.926S39.528,325.453,34.055,325.453z M139.607,378.229c-5.474,0-9.926-4.453-9.926-9.926
		s4.453-9.926,9.926-9.926c5.473,0,9.926,4.453,9.926,9.926C149.533,373.776,145.08,378.229,139.607,378.229z M159.381,352.618
		c-4.631-5.826-11.771-9.572-19.774-9.572c-7.649,0-14.509,3.422-19.145,8.811l-61.175-35.32c0.013-0.335,0.026-0.671,0.026-1.009
		c0-10.524-6.472-19.561-15.643-23.352v-76.441c9.171-3.79,15.643-12.828,15.643-23.352c0-1.873-0.211-3.696-0.6-5.454
		l64.284-37.114c4.444,3.889,10.255,6.254,16.61,6.254c6.723,0,12.835-2.645,17.366-6.943l63.764,36.814
		c-0.543,2.058-0.836,4.216-0.836,6.442c0,11.255,7.402,20.811,17.592,24.065v75.015c-10.19,3.254-17.592,12.81-17.592,24.065
		c0,0.706,0.037,1.403,0.094,2.095L159.381,352.618z M245.159,325.453c-5.473,0-9.926-4.453-9.926-9.926s4.453-9.926,9.926-9.926
		c5.474,0,9.926,4.453,9.926,9.926C255.085,321,250.633,325.453,245.159,325.453z M350.711,474.986
		c-5.473,0-9.926-4.453-9.926-9.927c0-5.473,4.453-9.926,9.926-9.926c5.474,0,9.926,4.453,9.926,9.926
		C360.638,470.533,356.185,474.986,350.711,474.986z M355.294,377.1h-9.165c-3.171-1.659-5.343-4.976-5.343-8.796
		c0-5.473,4.453-9.926,9.926-9.926c5.474,0,9.926,4.453,9.926,9.926C360.638,372.123,358.465,375.441,355.294,377.1z
		 M369.856,351.856c-4.636-5.388-11.496-8.81-19.145-8.81c-8.003,0-15.143,3.746-19.774,9.571l-60.613-34.995
		c0.057-0.691,0.094-1.389,0.094-2.095c0-11.255-7.402-20.811-17.592-24.065v-75.015c10.191-3.254,17.592-12.81,17.592-24.065
		c0-2.226-0.292-4.385-0.836-6.442l63.764-36.815c4.53,4.298,10.643,6.944,17.366,6.944c6.356,0,12.167-2.365,16.611-6.255
		l64.283,37.115c-0.388,1.758-0.6,3.581-0.6,5.454c0,10.524,6.472,19.561,15.644,23.352v76.441
		c-9.171,3.79-15.644,12.828-15.644,23.352c0,0.338,0.012,0.674,0.026,1.009L369.856,351.856z M456.264,325.453
		c-5.474,0-9.926-4.453-9.926-9.926s4.453-9.926,9.926-9.926s9.926,4.453,9.926,9.926S461.737,325.453,456.264,325.453z"/>
</g>
<g>
</g>
<g>
</g>
<g>
</g>
<g>
</g>
<g>
</g>
<g>
</g>
<g>
</g>
<g>
</g>
<g>
</g>
<g>
</g>
<g>
</g>
<g>
</g>
<g>
</g>
<g>
</g>
<g>
</g>
</svg>
