<?xml version="1.0" encoding="iso-8859-1"?>
<!-- Generator: Adobe Illustrator 18.1.1, SVG Export Plug-In . SVG Version: 6.00 Build 0)  -->
<svg version="1.1" id="Capa_1" xmlns="http://www.w3.org/2000/svg" xmlns:xlink="http://www.w3.org/1999/xlink" x="0px" y="0px"
	 viewBox="0 0 38.562 38.562" style="enable-background:new 0 0 38.562 38.562;" xml:space="preserve">
<g>
	<path style="fill:#010002;" d="M36.481,6.881l-1.499-1.289c-3.208,2.958-4.503,6.061-7.297,3.649
		c-2.796-2.407,0.082-4.146,2.535-7.754c0,0-0.669-0.578-1.495-1.293c-0.828-0.715-3.129,0.606-5.144,2.94l-3.646,4.233
		c-1.986,2.304-1.748,5.764,0.504,7.785l-1.062,1.232l-7.68-10.119c0.409-0.857,1.346-1.749,0.474-2.449L7.249,1.82L5.538,3.308
		c0,0,0.504,4.799,0.503,4.798c0.495,1.158,1.896,0.732,2.946,0.358l7.359,9.699c-1.085-0.258-2.257,0.061-3.038,0.965L1.786,32.494
		l4.348,3.747c1.311,1.131,3.285,0.984,4.416-0.328l10.244-11.886l2.529,3.332c-1.187,1.077-0.936,2.519,0.052,3.82l5.604,7.383
		l4.096-3.106c1.377-1.046,0.989-2.455-0.056-3.834l-5.603-7.383l-1.345,0.97l-4.681-6.171l1.515-1.758
		c2.335,1.93,5.793,1.653,7.78-0.649l3.646-4.229C36.343,10.066,37.306,7.596,36.481,6.881z M9.986,32.712
		c-0.693,0.807-1.904,0.895-2.706,0.202c-0.806-0.692-0.894-1.903-0.202-2.708s1.903-0.892,2.706-0.198
		C10.589,30.7,10.678,31.91,9.986,32.712z"/>
</g>
<g>
</g>
<g>
</g>
<g>
</g>
<g>
</g>
<g>
</g>
<g>
</g>
<g>
</g>
<g>
</g>
<g>
</g>
<g>
</g>
<g>
</g>
<g>
</g>
<g>
</g>
<g>
</g>
<g>
</g>
</svg>
