<?xml version="1.0" encoding="iso-8859-1"?>
<!-- Generator: Adobe Illustrator 19.0.0, SVG Export Plug-In . SVG Version: 6.00 Build 0)  -->
<svg version="1.1" id="Layer_1" xmlns="http://www.w3.org/2000/svg" xmlns:xlink="http://www.w3.org/1999/xlink" x="0px" y="0px"
	 viewBox="0 0 512 512" style="enable-background:new 0 0 512 512;" xml:space="preserve">
<g>
	<g>
		<path d="M51.745,0H8.17C3.658,0,0,3.658,0,8.17v495.66c0,4.512,3.658,8.17,8.17,8.17s8.17-3.658,8.17-8.17V266.894h27.234V503.83
			c0,4.512,3.658,8.17,8.17,8.17s8.17-3.658,8.17-8.17V8.17C59.915,3.658,56.257,0,51.745,0z M43.575,250.553H16.341V49.021h27.234
			V250.553z M43.575,32.681H16.341V16.34h27.234V32.681z"/>
	</g>
</g>
<g>
	<g>
		<path d="M443.512,247.83l67.191-104.518c1.616-2.514,1.73-5.71,0.298-8.333c-1.432-2.623-4.182-4.255-7.171-4.255H392.17V73.532
			c0-22.526-18.325-40.851-40.851-40.851H84.426c-4.512,0-8.17,3.658-8.17,8.17v92.596c0,4.512,3.658,8.17,8.17,8.17
			s8.17-3.658,8.17-8.17V49.021h258.723c13.516,0,24.511,10.995,24.511,24.511v185.213c-6.832-5.141-15.321-8.192-24.511-8.192
			H92.596v-84.426c0-4.512-3.658-8.17-8.17-8.17s-8.17,3.658-8.17,8.17v92.596c0,2.167,0.861,4.245,2.393,5.777
			c1.532,1.533,3.61,2.393,5.777,2.393h266.894c13.516,0,24.511,10.995,24.511,24.511c0,13.516-10.995,24.511-24.511,24.511H220.596
			c-2.864,0-5.613,0.499-8.17,1.405v-25.916c0-4.512-3.658-8.17-8.17-8.17s-8.17,3.658-8.17,8.17v49.021
			c0,13.516,10.995,24.511,24.511,24.511H503.83c2.989,0,5.739-1.632,7.171-4.255c1.431-2.623,1.317-5.819-0.298-8.332
			L443.512,247.83z M220.596,348.596c-4.506,0-8.17-3.665-8.17-8.17c0-4.506,3.665-8.17,8.17-8.17h130.723
			c22.526,0,40.851-18.325,40.851-40.851v-144.34h96.695l-61.938,96.347c-1.73,2.692-1.73,6.145,0,8.836l61.938,96.349H220.596z"/>
	</g>
</g>
<g>
</g>
<g>
</g>
<g>
</g>
<g>
</g>
<g>
</g>
<g>
</g>
<g>
</g>
<g>
</g>
<g>
</g>
<g>
</g>
<g>
</g>
<g>
</g>
<g>
</g>
<g>
</g>
<g>
</g>
</svg>
