<?xml version="1.0" encoding="iso-8859-1"?>
<!-- Generator: Adobe Illustrator 16.0.0, SVG Export Plug-In . SVG Version: 6.00 Build 0)  -->
<!DOCTYPE svg PUBLIC "-//W3C//DTD SVG 1.1//EN" "http://www.w3.org/Graphics/SVG/1.1/DTD/svg11.dtd">
<svg version="1.1" id="Capa_1" xmlns="http://www.w3.org/2000/svg" xmlns:xlink="http://www.w3.org/1999/xlink" x="0px" y="0px"
	 width="123.176px" height="123.176px" viewBox="0 0 123.176 123.176" style="enable-background:new 0 0 123.176 123.176;"
	 xml:space="preserve">
<g>
	<g>
		<circle cx="60.657" cy="18.722" r="11.705"/>
		<path d="M34.898,11.888c-3.862-3.869-9-6-14.467-6c-5.454,0-10.582,2.122-14.442,5.975c-7.977,7.963-7.986,20.933-0.025,28.909
			c3.864,3.869,9.002,6,14.468,6c0,0,0,0,0.002,0c5.451,0,10.581-2.123,14.441-5.975C42.85,32.834,42.86,19.864,34.898,11.888z
			 M20.432,43.118c-4.49,0-8.71-1.75-11.881-4.927c-6.542-6.551-6.532-17.203,0.02-23.744c3.169-3.164,7.383-4.907,11.861-4.907
			c4.489,0,8.709,1.75,11.882,4.928c6.54,6.552,6.532,17.203-0.02,23.743C29.123,41.377,24.911,43.118,20.432,43.118z"/>
		<rect x="5.93" y="25.576" width="3.951" height="1.506"/>
		<rect x="31.323" y="25.576" width="3.951" height="1.506"/>
		<rect x="19.678" y="11.656" width="1.505" height="3.95"/>
		<rect x="19.678" y="37.052" width="1.505" height="3.95"/>
		<path d="M21.184,24.733v-6.622h-1.505v6.622c-0.6,0.283-1.017,0.889-1.017,1.597c0,0.978,0.792,1.77,1.77,1.77
			c0.708,0,1.313-0.417,1.597-1.018h7.889v-1.506h-7.89C21.853,25.207,21.554,24.907,21.184,24.733z"/>
		<rect x="85.898" y="24.889" width="3.951" height="1.504"/>
		<rect x="111.292" y="24.889" width="3.95" height="1.504"/>
		<rect x="99.646" y="10.968" width="1.505" height="3.95"/>
		<rect x="99.646" y="36.362" width="1.505" height="3.95"/>
		<path d="M101.15,24.045v-6.622h-1.505v6.622c-0.6,0.284-1.017,0.889-1.017,1.597c0,0.977,0.792,1.771,1.769,1.771
			c0.709,0,1.313-0.417,1.599-1.019h7.889V24.89h-7.889C101.819,24.519,101.522,24.219,101.15,24.045z"/>
		<path d="M121.662,29.174l-2.959-1.093l0.055-0.516c0.19-1.766,0.123-3.544-0.201-5.283l-0.095-0.508l2.859-1.316
			c0.562-0.259,0.988-0.721,1.203-1.302c0.215-0.582,0.191-1.212-0.066-1.773l-1.396-3.026c-0.516-1.122-1.938-1.661-3.072-1.137
			l-2.86,1.321l-0.324-0.403c-1.111-1.375-2.418-2.583-3.884-3.587l-0.428-0.293l1.093-2.957c0.442-1.2-0.172-2.535-1.368-2.978
			l-3.132-1.155c-1.129-0.419-2.563,0.254-2.978,1.37l-1.09,2.96l-0.516-0.057c-1.752-0.188-3.543-0.12-5.282,0.201l-0.507,0.094
			L95.398,4.88c-0.518-1.122-1.939-1.657-3.074-1.138l-3.03,1.397c-1.159,0.535-1.668,1.913-1.133,3.073l1.317,2.858l-0.402,0.326
			c-1.38,1.118-2.589,2.425-3.59,3.886l-0.29,0.427l-2.954-1.094c-1.133-0.417-2.563,0.252-2.978,1.369l-1.157,3.131
			c-0.215,0.582-0.188,1.21,0.069,1.771c0.263,0.563,0.723,0.992,1.297,1.202l2.964,1.098l-0.055,0.515
			c-0.191,1.76-0.123,3.535,0.199,5.278l0.095,0.508l-2.859,1.318c-1.159,0.535-1.668,1.913-1.135,3.072l1.396,3.031
			c0.518,1.119,1.938,1.657,3.071,1.134l2.861-1.318l0.323,0.402c1.113,1.379,2.421,2.584,3.885,3.585l0.428,0.292l-1.094,2.958
			c-0.215,0.581-0.191,1.21,0.069,1.771c0.257,0.564,0.719,0.992,1.302,1.208l1.668,0.616c-9.47-0.455-14.918-5.681-19.324-9.928
			c-1.46-1.407-2.769-2.66-4.115-3.638c-1.588-1.394-3.559-2.389-5.58-2.885l-2.916,2.936l-2.828-2.969
			c-0.01,0.002-0.018,0.003-0.027,0.006c-1.826,0.437-3.607,1.285-5.108,2.464c-1.597,1.024-3.098,2.442-4.802,4.084
			c-4.61,4.442-10.349,9.972-20.651,9.972c-2.51,0-4.545,2.035-4.545,4.544s2.035,4.544,4.545,4.544
			c9.651,0,16.513-3.74,21.438-7.595v18.024c0,1.449,0.332,2.782,0.904,3.982c-0.002,0.049-0.016,0.095-0.016,0.144l-0.038,43.517
			c-0.002,2.966,2.399,5.373,5.365,5.375c0.002,0,0.004,0,0.004,0c2.966,0,5.37-2.401,5.372-5.366l0.032-37.338
			c0.118,0.003,0.236,0.015,0.355,0.015c0.14,0,0.276-0.014,0.414-0.018v37.336c0,2.966,2.405,5.371,5.371,5.371
			s5.37-2.405,5.37-5.371l0.002-43.515c0-0.094-0.022-0.18-0.026-0.271c0.536-1.169,0.852-2.459,0.852-3.86V49.213
			c4.912,3.812,11.73,7.476,21.282,7.476c2.51,0,4.544-2.034,4.544-4.544c0-1.83-1.086-3.396-2.645-4.117
			c0.002-0.001,0.004-0.001,0.007-0.002c0.561-0.26,0.986-0.721,1.197-1.299l1.097-2.963l0.516,0.056
			c1.753,0.19,3.542,0.122,5.28-0.202l0.509-0.094l1.312,2.862c0.519,1.117,1.944,1.653,3.074,1.134l3.031-1.396
			c0.561-0.26,0.988-0.722,1.202-1.303c0.215-0.581,0.19-1.21-0.069-1.771l-1.314-2.859l0.4-0.325
			c1.384-1.119,2.588-2.427,3.584-3.884l0.292-0.429l2.96,1.095c0.263,0.098,0.531,0.146,0.806,0.146
			c0.334,0,0.659-0.072,0.97-0.215c0.562-0.259,0.987-0.721,1.2-1.3l1.157-3.131C123.475,30.949,122.858,29.615,121.662,29.174z
			 M60.686,57.209h-0.054l-2.823-3.863l2.823-18.869h0.054l0.44,2.938c0.01,0.146,0.041,0.29,0.065,0.435l2.317,15.496
			L60.686,57.209z M107.254,40.136c-2.114,0.975-4.359,1.47-6.679,1.47c-6.215,0-11.911-3.646-14.513-9.291
			c-3.68-8-0.169-17.506,7.823-21.188c2.115-0.974,4.359-1.467,6.674-1.467c6.218,0,11.916,3.646,14.517,9.288
			C118.758,26.948,115.247,36.454,107.254,40.136z"/>
	</g>
</g>
<g>
</g>
<g>
</g>
<g>
</g>
<g>
</g>
<g>
</g>
<g>
</g>
<g>
</g>
<g>
</g>
<g>
</g>
<g>
</g>
<g>
</g>
<g>
</g>
<g>
</g>
<g>
</g>
<g>
</g>
</svg>
