<?xml version="1.0" encoding="utf-8"?>
<!-- Generator: Adobe Illustrator 25.2.1, SVG Export Plug-In . SVG Version: 6.00 Build 0)  -->
<svg version="1.1" id="Layer_1" xmlns="http://www.w3.org/2000/svg" xmlns:xlink="http://www.w3.org/1999/xlink" x="0px" y="0px"
	 viewBox="0 0 5669.29 5669.29" style="enable-background:new 0 0 5669.29 5669.29;" xml:space="preserve">
<style type="text/css">
	.st0{fill:#C61437;}
	.st1{font-family:'NexaBold';}
	.st2{font-size:282.1385px;}
</style>
<g>
	<g>
		<g>
			<polygon class="st0" points="2752.98,2826.92 2833.73,2826.92 2833.73,2390.94 2752.98,2540.63 			"/>
			<path class="st0" d="M2555.23,2718.19l-178.67-355.43h-97.28l120.17,229.53l-69.94,125.89l-186.93-355.43h-96.64l239.07,443.17
				c9.32,16.96,23.31,25.43,41.96,25.43c8.47,0,16.31-2.12,23.53-6.36c7.2-4.23,13.13-10.59,17.8-19.08l71.85-135.43l71.21,135.43
				c4.66,8.48,10.59,14.84,17.8,19.08c7.2,4.23,15.04,6.36,23.53,6.36c8.47,0,16.42-2.12,23.84-6.36
				c7.41-4.23,13.45-10.59,18.12-19.08l239.07-443.17h-90.29L2555.23,2718.19z"/>
			<path class="st0" d="M3154.68,2596.52c-12.58-12.14-22.58-26.62-29.74-43.07v0.7h-232.71V2626h232.71v104.88h80.75v-103.44
				c-0.63-0.23-1.27-0.45-1.9-0.68C3184.55,2619.59,3168.03,2609.41,3154.68,2596.52z"/>
			<path class="st0" d="M3153.5,2389.93c11.74-11.13,26.04-20.24,42.56-27.17h-71.12v68.08
				C3131.71,2415.24,3141.29,2401.49,3153.5,2389.93z"/>
			<path class="st0" d="M3586.79,2589.12c-24.38-22.04-60.09-33.06-107.14-33.06h-211.73c-17.8,0-31.9-4.87-42.28-14.62
				c-10.39-9.75-15.58-23.53-15.58-41.33c0-17.8,5.09-31.68,15.26-41.65c10.17-9.95,24.58-14.94,43.24-14.94h331.9v-80.75h-331.9
				c-22.89,0-43.24,3.29-61.04,9.85c-17.8,6.58-32.74,15.58-44.82,27.02c-12.08,11.45-21.2,25.11-27.34,41.01
				c-6.15,15.9-9.22,33.17-9.22,51.82c0,19.07,3.28,36.67,9.86,52.77c6.57,16.11,15.9,29.99,27.98,41.65
				c12.08,11.66,26.91,20.77,44.51,27.34c17.58,6.58,37.2,9.86,58.81,9.86h212.37c21.62,0,38.25,4.99,49.91,14.94
				c11.65,9.97,17.49,24.91,17.49,44.82c0,18.23-5.83,32.85-17.49,43.87c-11.66,11.03-28.29,16.53-49.91,16.53h-260.59v80.75h260.59
				c24.16,0,45.24-3.39,63.26-10.17c18.01-6.77,32.95-16.21,44.83-28.29c11.86-12.08,20.76-26.39,26.7-42.92
				c5.93-16.53,8.9-34.54,8.9-54.04C3623.35,2644.66,3611.16,2611.16,3586.79,2589.12z"/>
			<rect x="3125.11" y="2744.26" class="st0" width="80.58" height="80.75"/>
		</g>
	</g>
	<text transform="matrix(1 0 0 1 1263.5735 3219.627)" class="st0 st1 st2">MANAGEMENT ONLINE</text>
</g>
</svg>
